<svg width="305" height="63" viewBox="0 0 305 63" fill="none" xmlns="http://www.w3.org/2000/svg">
<path d="M123.157 60.95C123.053 59.8162 123 58.6656 123 57.501C123 38.999 136.431 24 153 24C169.569 24 183 38.999 183 57.501C183 57.9412 182.992 58.3793 182.977 58.8155L184.5 57.2928L189 61.7928L193.5 57.2928L198 61.7928L202.5 57.2928L207 61.7928L211.5 57.2928L216 61.7928L220.5 57.2928L225 61.7928L229.5 57.2928L234 61.7928L238.5 57.2928L243 61.7928L247.5 57.2928L252 61.7928L256.5 57.2928L261 61.7928L265.5 57.2928L270 61.7928L274.5 57.2928L279 61.7928L283.5 57.2928L288 61.7928L292.5 57.2928L297 61.7928L301.5 57.2928L305 60.7928V0.5H0V59.7928L2.5 57.2928L7 61.7928L11.5 57.2928L16 61.7928L20.5 57.2928L25 61.7928L29.5 57.2928L34 61.7928L38.5 57.2928L43 61.7928L47.5 57.2928L52 61.7928L56.5 57.2928L61 61.7928L65.5 57.2928L70 61.7928L74.5 57.2928L79 61.7928L83.5 57.2928L88 61.7928L92.5 57.2928L97 61.7928L101.5 57.2928L106 61.7928L110.5 57.2928L115 61.7928L119.5 57.2928L123.157 60.95Z" fill="white"/>
</svg>
